<svg xmlns="http://www.w3.org/2000/svg" viewBox="0 0 520 380" font-family="Roboto, sans-serif">
  <defs>
    <style>
      .bg { fill: #F6F5F1; }
      .text-label { fill: #6B6660; font-size: 10px; }
      .text-muted { fill: #9B9893; font-size: 10px; }
      .text-value { fill: #2C2925; font-size: 12px; }
      .text-placeholder { fill: #C4C0BA; font-size: 11px; }
      .input-bg { fill: #FFFFFF; stroke: #E5E2DC; stroke-width: 1; rx: 6; }
      .chip-active { fill: #FFF8E7; stroke: #F5A800; stroke-width: 1; rx: 10; }
      .chip-inactive { fill: #FFFFFF; stroke: #E5E2DC; stroke-width: 1; rx: 10; }
      .chip-text-active { fill: #8A6800; font-size: 10px; font-weight: 500; }
      .chip-text-inactive { fill: #9B9893; font-size: 10px; }
      .annotation { fill: #9B9893; font-size: 8px; font-style: italic; }
      .separator { stroke: #E5E2DC; stroke-width: 1; }
      .text-section { fill: #9B9893; font-size: 10px; font-weight: 600; letter-spacing: 0.5px; }
      .text-title { fill: #2C2925; font-size: 13px; font-weight: 600; font-family: 'Noto Serif JP', serif; }
      .suffix { fill: #9B9893; font-size: 11px; }
    </style>
  </defs>

  <rect width="520" height="380" class="bg" rx="8"/>

  <text x="16" y="24" class="text-title">Frecuencia — Input con presets</text>
  <line x1="0" y1="34" x2="520" y2="34" class="separator"/>

  <!-- ═══ ESTADO 1: Nada seleccionado ═══ -->
  <text x="16" y="56" class="text-section">ESTADO 1: VACIO</text>

  <text x="16" y="76" class="text-label">Frecuencia *</text>

  <!-- Input numerico con suffix "horas" -->
  <rect x="16" y="82" width="120" height="28" class="input-bg"/>
  <text x="28" y="100" class="text-placeholder">Cada...</text>
  <text x="108" y="100" class="suffix">hs</text>

  <!-- Chips de presets -->
  <rect x="146" y="84" width="34" height="22" class="chip-inactive"/>
  <text x="163" y="99" text-anchor="middle" class="chip-text-inactive">6h</text>

  <rect x="184" y="84" width="34" height="22" class="chip-inactive"/>
  <text x="201" y="99" text-anchor="middle" class="chip-text-inactive">8h</text>

  <rect x="222" y="84" width="38" height="22" class="chip-inactive"/>
  <text x="241" y="99" text-anchor="middle" class="chip-text-inactive">12h</text>

  <rect x="264" y="84" width="38" height="22" class="chip-inactive"/>
  <text x="283" y="99" text-anchor="middle" class="chip-text-inactive">24h</text>

  <rect x="306" y="84" width="38" height="22" class="chip-inactive"/>
  <text x="325" y="99" text-anchor="middle" class="chip-text-inactive">48h</text>

  <rect x="348" y="84" width="38" height="22" class="chip-inactive"/>
  <text x="367" y="99" text-anchor="middle" class="chip-text-inactive">72h</text>

  <text x="16" y="126" class="annotation">Click en un chip → llena el input. O escribir directo cualquier numero.</text>

  <!-- ═══ ESTADO 2: Preset seleccionado (12h) ═══ -->
  <line x1="0" y1="142" x2="520" y2="142" class="separator"/>
  <text x="16" y="162" class="text-section">ESTADO 2: PRESET SELECCIONADO (click en 12h)</text>

  <text x="16" y="182" class="text-label">Frecuencia *</text>

  <rect x="16" y="188" width="120" height="28" class="input-bg"/>
  <text x="28" y="206" class="text-value">12</text>
  <text x="108" y="206" class="suffix">hs</text>

  <rect x="146" y="190" width="34" height="22" class="chip-inactive"/>
  <text x="163" y="205" text-anchor="middle" class="chip-text-inactive">6h</text>

  <rect x="184" y="190" width="34" height="22" class="chip-inactive"/>
  <text x="201" y="205" text-anchor="middle" class="chip-text-inactive">8h</text>

  <rect x="222" y="190" width="38" height="22" class="chip-active"/>
  <text x="241" y="205" text-anchor="middle" class="chip-text-active">12h</text>

  <rect x="264" y="190" width="38" height="22" class="chip-inactive"/>
  <text x="283" y="205" text-anchor="middle" class="chip-text-inactive">24h</text>

  <rect x="306" y="190" width="38" height="22" class="chip-inactive"/>
  <text x="325" y="205" text-anchor="middle" class="chip-text-inactive">48h</text>

  <rect x="348" y="190" width="38" height="22" class="chip-inactive"/>
  <text x="367" y="205" text-anchor="middle" class="chip-text-inactive">72h</text>

  <text x="16" y="232" class="annotation">El chip 12h se ilumina dorado. El input muestra "12". Editable — si el vet cambia a 10, el chip se deselecciona.</text>

  <!-- ═══ ESTADO 3: Valor custom (4h) ═══ -->
  <line x1="0" y1="248" x2="520" y2="248" class="separator"/>
  <text x="16" y="268" class="text-section">ESTADO 3: VALOR CUSTOM (el vet escribio 4)</text>

  <text x="16" y="288" class="text-label">Frecuencia *</text>

  <rect x="16" y="294" width="120" height="28" class="input-bg"/>
  <text x="28" y="312" class="text-value">4</text>
  <text x="108" y="312" class="suffix">hs</text>

  <rect x="146" y="296" width="34" height="22" class="chip-inactive"/>
  <text x="163" y="311" text-anchor="middle" class="chip-text-inactive">6h</text>

  <rect x="184" y="296" width="34" height="22" class="chip-inactive"/>
  <text x="201" y="311" text-anchor="middle" class="chip-text-inactive">8h</text>

  <rect x="222" y="296" width="38" height="22" class="chip-inactive"/>
  <text x="241" y="311" text-anchor="middle" class="chip-text-inactive">12h</text>

  <rect x="264" y="296" width="38" height="22" class="chip-inactive"/>
  <text x="283" y="311" text-anchor="middle" class="chip-text-inactive">24h</text>

  <rect x="306" y="296" width="38" height="22" class="chip-inactive"/>
  <text x="325" y="311" text-anchor="middle" class="chip-text-inactive">48h</text>

  <rect x="348" y="296" width="38" height="22" class="chip-inactive"/>
  <text x="367" y="311" text-anchor="middle" class="chip-text-inactive">72h</text>

  <text x="16" y="338" class="annotation">Ningun chip activo — el valor es custom. Totalmente valido. El resumen colapsado dira "c/4h".</text>

  <!-- ═══ Layout note ═══ -->
  <line x1="0" y1="350" x2="520" y2="350" class="separator"/>
  <text x="16" y="368" class="text-muted" font-size="9">Input + chips en una sola fila (flex wrap). En mobile los chips bajan a segunda linea. El input siempre es editable.</text>
</svg>