<svg xmlns="http://www.w3.org/2000/svg" viewBox="0 0 620 340" font-family="Roboto, sans-serif">
  <defs>
    <style>
      .bg { fill: #F6F5F1; }
      .card-expanded { fill: #FFFFFF; stroke: #E5E2DC; stroke-width: 1.5; rx: 10; }
      .text-label { fill: #6B6660; font-size: 10px; }
      .text-muted { fill: #9B9893; font-size: 10px; }
      .text-value { fill: #2C2925; font-size: 12px; }
      .text-placeholder { fill: #C4C0BA; font-size: 11px; }
      .input-bg { fill: #FFFFFF; stroke: #E5E2DC; stroke-width: 1; rx: 6; }
      .select-bg { fill: #FFFFFF; stroke: #E5E2DC; stroke-width: 1; rx: 6; }
      .compound { stroke: #E5E2DC; stroke-width: 1; rx: 6; }
      .num-part { fill: #FFFFFF; }
      .sel-part { fill: #FAFAF8; }
      .chip-active { fill: #FFF8E7; stroke: #F5A800; stroke-width: 1; rx: 9; }
      .chip-inactive { fill: #FFFFFF; stroke: #E5E2DC; stroke-width: 1; rx: 9; }
      .chip-text-active { fill: #8A6800; font-size: 9px; font-weight: 500; }
      .chip-text-inactive { fill: #9B9893; font-size: 9px; }
      .expand-icon { fill: #9B9893; font-size: 11px; }
      .separator { stroke: #E5E2DC; stroke-width: 1; }
      .annotation { fill: #9B9893; font-size: 8px; font-style: italic; }
      .suffix { fill: #9B9893; font-size: 10px; }
      .text-title { fill: #2C2925; font-size: 13px; font-weight: 600; font-family: 'Noto Serif JP', serif; }
    </style>
  </defs>

  <rect width="620" height="340" class="bg" rx="8"/>

  <text x="16" y="22" class="text-title">Card expandida — Frecuencia con chips debajo</text>
  <line x1="0" y1="32" x2="620" y2="32" class="separator"/>

  <!-- Card expandida -->
  <rect x="10" y="42" width="600" height="286" class="card-expanded"/>

  <!-- Header -->
  <text x="26" y="64" class="expand-icon">&#9660;</text>
  <rect x="42" y="52" width="80" height="18" rx="9" fill="#F0EDE8" stroke="none"/>
  <text x="82" y="65" text-anchor="middle" class="text-value" font-size="10" font-weight="500">Meloxicam</text>
  <rect x="568" y="52" width="22" height="18" rx="4" fill="none" stroke="#E5E2DC" stroke-width="1"/>
  <text x="579" y="65" text-anchor="middle" fill="#C8423A" font-size="10">x</text>

  <line x1="26" y1="76" x2="596" y2="76" class="separator"/>

  <!-- Nombre -->
  <text x="26" y="94" class="text-label">Medicamento *</text>
  <rect x="26" y="100" width="564" height="24" class="input-bg"/>
  <text x="38" y="116" class="text-value">Meloxicam</text>

  <!-- ═══ Fila: Dosis + Via + Duracion (3 columnas) ═══ -->

  <!-- Dosis -->
  <text x="26" y="142" class="text-label">Dosis *</text>
  <rect x="26" y="148" width="170" height="24" class="compound"/>
  <rect x="26" y="148" width="96" height="24" class="num-part" rx="6"/>
  <text x="38" y="164" class="text-value">0.2</text>
  <line x1="122" y1="150" x2="122" y2="170" stroke="#E5E2DC" stroke-width="1"/>
  <rect x="122" y="148" width="74" height="24" class="sel-part" rx="0"/>
  <text x="134" y="164" class="text-value" font-size="10">mg/kg</text>
  <text x="186" y="164" class="text-muted" font-size="8">&#9662;</text>

  <!-- Via -->
  <text x="210" y="142" class="text-label">Via</text>
  <rect x="210" y="148" width="100" height="24" class="select-bg"/>
  <text x="222" y="164" class="text-value" font-size="10">SC</text>
  <text x="300" y="164" class="text-muted" font-size="8">&#9662;</text>

  <!-- Duracion -->
  <text x="324" y="142" class="text-label">Duracion *</text>
  <rect x="324" y="148" width="130" height="24" class="compound"/>
  <rect x="324" y="148" width="66" height="24" class="num-part" rx="6"/>
  <text x="336" y="164" class="text-value">3</text>
  <line x1="390" y1="150" x2="390" y2="170" stroke="#E5E2DC" stroke-width="1"/>
  <rect x="390" y="148" width="64" height="24" class="sel-part" rx="0"/>
  <text x="402" y="164" class="text-value" font-size="10">dias</text>
  <text x="444" y="164" class="text-muted" font-size="8">&#9662;</text>

  <!-- ═══ Fila: Frecuencia (full width, input + chips) ═══ -->
  <text x="26" y="192" class="text-label">Frecuencia *</text>

  <!-- Input numerico con suffix -->
  <rect x="26" y="198" width="90" height="24" class="input-bg"/>
  <text x="38" y="214" class="text-value">12</text>
  <text x="92" y="214" class="suffix">hs</text>

  <!-- Chips de presets al lado del input -->
  <rect x="128" y="200" width="30" height="20" class="chip-inactive"/>
  <text x="143" y="214" text-anchor="middle" class="chip-text-inactive">6h</text>

  <rect x="162" y="200" width="30" height="20" class="chip-inactive"/>
  <text x="177" y="214" text-anchor="middle" class="chip-text-inactive">8h</text>

  <rect x="196" y="200" width="34" height="20" class="chip-active"/>
  <text x="213" y="214" text-anchor="middle" class="chip-text-active">12h</text>

  <rect x="234" y="200" width="34" height="20" class="chip-inactive"/>
  <text x="251" y="214" text-anchor="middle" class="chip-text-inactive">24h</text>

  <rect x="272" y="200" width="34" height="20" class="chip-inactive"/>
  <text x="289" y="214" text-anchor="middle" class="chip-text-inactive">48h</text>

  <rect x="310" y="200" width="34" height="20" class="chip-inactive"/>
  <text x="327" y="214" text-anchor="middle" class="chip-text-inactive">72h</text>

  <!-- ═══ Notas ═══ -->
  <text x="26" y="240" class="text-label">Notas</text>
  <rect x="26" y="246" width="564" height="22" class="input-bg"/>
  <text x="38" y="261" class="text-placeholder" font-size="10">Indicaciones para este medicamento...</text>

  <!-- Preview -->
  <rect x="26" y="276" width="564" height="16" rx="4" fill="#F6F5F1" stroke="none"/>
  <text x="38" y="288" class="text-muted" font-size="9">Vista colapsada: Meloxicam · 0.2 mg/kg · SC · c/12h · 3 dias</text>

  <!-- Annotation -->
  <text x="26" y="320" class="annotation">Frecuencia en fila propia (full width). Input 90px + 6 chips = ~350px total. Entra holgado. En mobile wrappean naturalmente.</text>
</svg>