<svg xmlns="http://www.w3.org/2000/svg" viewBox="0 0 640 1820" font-family="Roboto, sans-serif">
  <defs>
    <style>
      .bg { fill: #F6F5F1; }
      .card { fill: #FFFFFF; stroke: #E5E2DC; stroke-width: 1; rx: 12; }
      .card-collapsible { fill: #FFFFFF; stroke: #E5E2DC; stroke-width: 1; rx: 12; }
      .card-collapsed { fill: #FAFAF8; stroke: #E5E2DC; stroke-width: 1; rx: 12; }
      .text-title { fill: #2C2925; font-size: 14px; font-weight: 600; font-family: 'Noto Serif JP', serif; }
      .text-section { fill: #9B9893; font-size: 10px; font-weight: 600; letter-spacing: 0.5px; }
      .text-label { fill: #6B6660; font-size: 10px; }
      .text-muted { fill: #9B9893; font-size: 10px; }
      .text-placeholder { fill: #C4C0BA; font-size: 11px; }
      .text-value { fill: #2C2925; font-size: 12px; }
      .input-bg { fill: #FFFFFF; stroke: #E5E2DC; stroke-width: 1; rx: 6; }
      .select-bg { fill: #FFFFFF; stroke: #E5E2DC; stroke-width: 1; rx: 6; }
      .row-bg { fill: #FAFAF8; stroke: #E5E2DC; stroke-width: 1; rx: 8; }
      .row-expanded { fill: #FFFFFF; stroke: #E5E2DC; stroke-width: 1.5; rx: 10; }
      .separator { stroke: #E5E2DC; stroke-width: 1; }
      .chip-active { fill: #FFF8E7; stroke: #F5A800; stroke-width: 1; rx: 12; }
      .chip-inactive { fill: #FFFFFF; stroke: #E5E2DC; stroke-width: 1; rx: 12; }
      .chip-text-active { fill: #8A6800; font-size: 11px; font-weight: 500; }
      .chip-text-inactive { fill: #9B9893; font-size: 11px; }
      .badge-change { fill: #FFF3CC; rx: 3; }
      .badge-change-text { fill: #8A6800; font-size: 7px; font-weight: 600; }
      .badge-auto { fill: #E8F5E9; rx: 3; }
      .badge-auto-text { fill: #3D9A5C; font-size: 7px; font-weight: 600; }
      .badge-new { fill: #E3F2FD; rx: 3; }
      .badge-new-text { fill: #1565C0; font-size: 7px; font-weight: 600; }
      .badge-merged { fill: #E3F2FD; rx: 3; }
      .badge-merged-text { fill: #1565C0; font-size: 7px; font-weight: 600; }
      .badge-removed { fill: #FFEBEE; rx: 3; }
      .badge-removed-text { fill: #C8423A; font-size: 7px; font-weight: 600; }
      .annotation { fill: #9B9893; font-size: 8px; font-style: italic; }
      .compound { stroke: #E5E2DC; stroke-width: 1; rx: 6; }
      .num-part { fill: #FFFFFF; }
      .sel-part { fill: #FAFAF8; }
      .expand-icon { fill: #9B9893; font-size: 11px; }
      .summary-text { fill: #6B6660; font-size: 10px; }
      .prefilled-bg { fill: #FAFFF7; stroke: #B8D4A0; stroke-width: 1; rx: 6; }
      .strikethrough { text-decoration: line-through; fill: #C8423A; font-size: 10px; }
      .collapse-chevron { fill: #9B9893; font-size: 12px; cursor: pointer; }
      .section-icon { fill: none; stroke: #9B9893; stroke-width: 1.4; stroke-linecap: round; stroke-linejoin: round; }
    </style>
  </defs>

  <rect width="640" height="1820" class="bg" rx="8"/>

  <!-- ═══ Header ═══ -->
  <text x="20" y="28" class="text-title">Formulario de consulta — v3 Rediseño completo</text>
  <text x="620" y="28" text-anchor="end" class="text-muted">v3.1</text>
  <line x1="0" y1="40" x2="640" y2="40" class="separator"/>
  <text x="20" y="58" class="annotation">Campos redundantes eliminados, examen clinico colapsable, servicios siempre visibles, medicacion estructurada</text>

  <!-- ═══════════════════════════════════════════════════════════════ -->
  <!-- SECCION 1: DATOS BASICOS                                      -->
  <!-- ═══════════════════════════════════════════════════════════════ -->
  <rect x="14" y="72" width="612" height="136" class="card"/>
  <!-- Icono ClipboardList (Lucide) -->
  <g transform="translate(28, 80) scale(0.583)" class="section-icon">
    <rect width="8" height="4" x="8" y="2" rx="1" ry="1"/>
    <path d="M16 4h2a2 2 0 0 1 2 2v14a2 2 0 0 1-2 2H6a2 2 0 0 1-2-2V6a2 2 0 0 1 2-2h2"/>
    <path d="M12 11h4"/><path d="M12 16h4"/>
    <path d="M8 11h.01"/><path d="M8 16h.01"/>
  </g>
  <text x="46" y="94" class="text-section">DATOS BASICOS</text>
  <line x1="138" y1="90" x2="612" y2="90" class="separator"/>

  <!-- Veterinario — autocomplete -->
  <text x="28" y="114" class="text-label">Veterinario *</text>
  <rect x="28" y="120" width="290" height="28" class="select-bg"/>
  <text x="40" y="138" class="text-value">Dra. Martinez</text>
  <text x="306" y="138" class="text-muted" font-size="9">&#9662;</text>
  <rect x="228" y="110" width="78" height="12" class="badge-auto"/>
  <text x="232" y="119" class="badge-auto-text">AUTOCOMPLETE</text>
  <text x="28" y="160" class="annotation">Select de veterinarios del tenant (contacts). Fallback a texto libre. Default del settings.</text>

  <!-- Fecha -->
  <text x="336" y="114" class="text-label">Fecha y hora</text>
  <rect x="336" y="120" width="276" height="28" class="input-bg"/>
  <text x="348" y="138" class="text-value">28/03/2026 10:30</text>

  <!-- Peso — precargado -->
  <text x="28" y="178" class="text-label">Peso (kg)</text>
  <rect x="28" y="184" width="140" height="28" class="prefilled-bg"/>
  <text x="40" y="202" class="text-value">28.5</text>
  <rect x="100" y="172" width="62" height="12" class="badge-auto"/>
  <text x="104" y="181" class="badge-auto-text">PRECARGADO</text>

  <!-- Temperatura -->
  <text x="186" y="178" class="text-label">Temperatura (°C)</text>
  <rect x="186" y="184" width="132" height="28" class="input-bg"/>
  <text x="198" y="202" class="text-placeholder">ej: 38.5</text>

  <!-- ═══════════════════════════════════════════════════════════════ -->
  <!-- SECCION 2: SERVICIOS PRESTADOS — siempre visible              -->
  <!-- ═══════════════════════════════════════════════════════════════ -->
  <rect x="14" y="220" width="612" height="106" class="card"/>
  <!-- Icono Receipt (Lucide) -->
  <g transform="translate(28, 228) scale(0.583)" class="section-icon">
    <path d="M4 2v20l2-1 2 1 2-1 2 1 2-1 2 1 2-1 2 1V2l-2 1-2-1-2 1-2-1-2 1-2-1-2 1Z"/>
    <path d="M16 8h-6a2 2 0 1 0 0 4h4a2 2 0 1 1 0 4H8"/>
    <path d="M12 17.5v-11"/>
  </g>
  <text x="46" y="242" class="text-section">SERVICIOS PRESTADOS</text>
  <rect x="173" y="232" width="55" height="12" class="badge-change"/>
  <text x="177" y="241" class="badge-change-text">CAMBIADO</text>
  <line x1="236" y1="238" x2="612" y2="238" class="separator"/>

  <!-- Motivo como input corto -->
  <text x="28" y="258" class="text-label">Motivo (1 linea) *</text>
  <rect x="28" y="264" width="584" height="28" class="input-bg"/>
  <text x="40" y="282" class="text-value">Control anual de rutina</text>

  <!-- ServiceLineForm placeholder -->
  <rect x="28" y="300" width="584" height="22" rx="4" fill="#FAFAF8" stroke="#E5E2DC" stroke-width="0.5"/>
  <text x="40" y="315" class="text-muted" font-size="9">ServiceLineForm: catalogo de servicios + precios (columnas de precio controladas por showPrices)</text>

  <text x="28" y="324" class="annotation">Chips de categoria eliminados — redundantes con los servicios. showPrices solo oculta columnas de precio.</text>

  <!-- ═══════════════════════════════════════════════════════════════ -->
  <!-- SECCION 3: EXAMEN CLINICO — colapsable, cerrado por defecto   -->
  <!-- ═══════════════════════════════════════════════════════════════ -->

  <!-- Estado colapsado (default) -->
  <rect x="14" y="372" width="612" height="40" class="card-collapsed"/>
  <text x="28" y="396" class="collapse-chevron">&#9654;</text>
  <!-- Icono Stethoscope (Lucide) -->
  <g transform="translate(40, 382) scale(0.583)" class="section-icon">
    <path d="M11 2v2"/><path d="M5 2v2"/>
    <path d="M5 3H4a2 2 0 0 0-2 2v4a6 6 0 0 0 12 0V5a2 2 0 0 0-2-2h-1"/>
    <path d="M8 15a6 6 0 0 0 12 0v-3"/>
    <circle cx="20" cy="10" r="2"/>
  </g>
  <text x="58" y="396" class="text-section">EXAMEN CLINICO</text>
  <rect x="150" y="386" width="55" height="12" class="badge-change"/>
  <text x="154" y="395" class="badge-change-text">COLAPSABLE</text>
  <text x="215" y="396" class="text-muted" font-size="9">Anamnesis · Examen fisico</text>
  <text x="596" y="396" class="text-muted" font-size="9">Abrir</text>

  <text x="28" y="426" class="annotation">Cerrado por defecto. Para vacunas, seguimientos y visitas rapidas no se necesita. El vet abre solo si hace examen completo.</text>

  <!-- Estado expandido (al hacer click) -->
  <rect x="14" y="442" width="612" height="150" class="card-collapsible"/>
  <text x="28" y="464" class="collapse-chevron">&#9660;</text>
  <g transform="translate(40, 450) scale(0.583)" class="section-icon">
    <path d="M11 2v2"/><path d="M5 2v2"/>
    <path d="M5 3H4a2 2 0 0 0-2 2v4a6 6 0 0 0 12 0V5a2 2 0 0 0-2-2h-1"/>
    <path d="M8 15a6 6 0 0 0 12 0v-3"/>
    <circle cx="20" cy="10" r="2"/>
  </g>
  <text x="58" y="464" class="text-section">EXAMEN CLINICO</text>
  <text x="596" y="464" class="text-muted" font-size="9">Cerrar</text>
  <line x1="28" y1="472" x2="612" y2="472" class="separator"/>

  <text x="28" y="492" class="text-label">Anamnesis</text>
  <rect x="28" y="498" width="584" height="28" class="input-bg"/>
  <text x="40" y="516" class="text-placeholder">Lo que reporta el dueno...</text>

  <text x="28" y="540" class="text-label">Examen fisico</text>
  <rect x="28" y="546" width="584" height="28" class="input-bg"/>
  <text x="40" y="564" class="text-placeholder">Hallazgos del examen...</text>

  <text x="28" y="586" class="annotation">Ambos campos opcionales. Si se completan, se muestran en la vista de detalle.</text>

  <!-- ═══════════════════════════════════════════════════════════════ -->
  <!-- SECCION 4: DIAGNOSTICO — con diagnosis_tags                   -->
  <!-- ═══════════════════════════════════════════════════════════════ -->
  <rect x="14" y="604" width="612" height="104" class="card"/>
  <!-- Icono SearchCheck (Lucide) -->
  <g transform="translate(28, 612) scale(0.583)" class="section-icon">
    <path d="m8 11 2 2 4-4"/>
    <circle cx="11" cy="11" r="8"/>
    <path d="m21 21-4.3-4.3"/>
  </g>
  <text x="46" y="626" class="text-section">DIAGNOSTICO</text>
  <line x1="125" y1="622" x2="612" y2="622" class="separator"/>

  <text x="28" y="646" class="text-label">Diagnostico</text>
  <rect x="28" y="652" width="584" height="28" class="input-bg"/>
  <text x="40" y="670" class="text-value">Paciente clinicamente sano</text>

  <!-- diagnosis_tags — NUEVO en el form -->
  <text x="28" y="694" class="text-label">Tags de diagnostico</text>
  <rect x="28" y="700" width="584" height="28" rx="6" fill="#FFFFFF" stroke="#E5E2DC" stroke-width="1"/>
  <rect x="34" y="704" width="48" height="18" rx="9" fill="#F0EDE8" stroke="none"/>
  <text x="58" y="717" text-anchor="middle" class="text-value" font-size="9">sano</text>
  <rect x="88" y="704" width="58" height="18" rx="9" fill="#F0EDE8" stroke="none"/>
  <text x="117" y="717" text-anchor="middle" class="text-value" font-size="9">control</text>
  <text x="156" y="717" class="text-placeholder" font-size="10">Agregar tag...</text>
  <rect x="28" y="730" width="45" height="12" class="badge-new"/>
  <text x="32" y="739" class="badge-new-text">NUEVO</text>
  <text x="80" y="739" class="annotation">ChipInput. Campo diagnosis_tags (jsonb) existia en DB pero no en el form. Util para filtrar historial.</text>

  <!-- ═══════════════════════════════════════════════════════════════ -->
  <!-- SECCION 5: TRATAMIENTO + MEDICACION                          -->
  <!-- ═══════════════════════════════════════════════════════════════ -->
  <rect x="14" y="752" width="612" height="366" class="card"/>
  <!-- Icono Pill (Lucide) -->
  <g transform="translate(28, 760) scale(0.583)" class="section-icon">
    <path d="m10.5 20.5 10-10a4.95 4.95 0 1 0-7-7l-10 10a4.95 4.95 0 1 0 7 7Z"/>
    <path d="m8.5 8.5 7 7"/>
  </g>
  <text x="46" y="774" class="text-section">TRATAMIENTO</text>
  <rect x="120" y="764" width="55" height="12" class="badge-change"/>
  <text x="124" y="773" class="badge-change-text">CAMBIADO</text>
  <line x1="183" y1="770" x2="612" y2="770" class="separator"/>

  <!-- Indicaciones generales -->
  <text x="28" y="794" class="text-label">Indicaciones generales</text>
  <rect x="28" y="800" width="584" height="28" class="input-bg"/>
  <text x="40" y="818" class="text-value">Dieta blanda 3 dias, reposo relativo</text>
  <text x="28" y="838" class="annotation">Renombrado de "Plan de tratamiento". Indicaciones no farmacologicas. Los farmacos van en Medicacion.</text>

  <!-- ─── Medicamentos: Hibrido collapse/expand ─── -->
  <text x="28" y="858" class="text-label" font-weight="600">Medicacion</text>

  <!-- Med 1 — colapsado -->
  <rect x="28" y="868" width="584" height="38" class="row-bg"/>
  <text x="42" y="892" class="expand-icon">&#9654;</text>
  <rect x="58" y="878" width="96" height="18" rx="9" fill="#F0EDE8" stroke="none"/>
  <text x="106" y="891" text-anchor="middle" class="text-value" font-size="10" font-weight="500">Amoxicilina</text>
  <text x="166" y="891" class="summary-text">15 mg/kg</text>
  <text x="218" y="891" class="text-muted">·</text>
  <text x="226" y="891" class="summary-text">Oral</text>
  <text x="250" y="891" class="text-muted">·</text>
  <text x="258" y="891" class="summary-text">c/12h</text>
  <text x="290" y="891" class="text-muted">·</text>
  <text x="298" y="891" class="summary-text">7 dias</text>
  <rect x="572" y="878" width="22" height="18" rx="4" fill="none" stroke="#E5E2DC" stroke-width="1"/>
  <text x="583" y="891" text-anchor="middle" fill="#C8423A" font-size="10">x</text>

  <!-- Med 2 — expandido -->
  <rect x="28" y="914" width="584" height="160" class="row-expanded"/>

  <text x="42" y="936" class="expand-icon">&#9660;</text>
  <rect x="58" y="924" width="80" height="18" rx="9" fill="#F0EDE8" stroke="none"/>
  <text x="98" y="937" text-anchor="middle" class="text-value" font-size="10" font-weight="500">Meloxicam</text>
  <rect x="572" y="924" width="22" height="18" rx="4" fill="none" stroke="#E5E2DC" stroke-width="1"/>
  <text x="583" y="937" text-anchor="middle" fill="#C8423A" font-size="10">x</text>

  <line x1="42" y1="948" x2="598" y2="948" class="separator"/>

  <!-- Nombre -->
  <text x="42" y="966" class="text-label">Medicamento *</text>
  <rect x="42" y="972" width="556" height="24" class="input-bg"/>
  <text x="54" y="988" class="text-value">Meloxicam</text>

  <!-- Dosis + Via + Frecuencia + Duracion -->
  <text x="42" y="1010" class="text-label">Dosis *</text>
  <rect x="42" y="1016" width="140" height="24" class="compound"/>
  <rect x="42" y="1016" width="74" height="24" class="num-part" rx="6"/>
  <text x="54" y="1032" class="text-value">0.2</text>
  <line x1="116" y1="1018" x2="116" y2="1038" stroke="#E5E2DC" stroke-width="1"/>
  <rect x="116" y="1016" width="66" height="24" class="sel-part" rx="0"/>
  <text x="126" y="1032" class="text-value" font-size="10">mg/kg</text>
  <text x="172" y="1032" class="text-muted" font-size="8">&#9662;</text>

  <text x="194" y="1010" class="text-label">Via</text>
  <rect x="194" y="1016" width="80" height="24" class="select-bg"/>
  <text x="206" y="1032" class="text-value" font-size="10">SC</text>
  <text x="264" y="1032" class="text-muted" font-size="8">&#9662;</text>

  <text x="286" y="1010" class="text-label">Frecuencia *</text>
  <rect x="286" y="1016" width="120" height="24" class="select-bg"/>
  <text x="298" y="1032" class="text-value" font-size="10">Cada 24 horas</text>
  <text x="396" y="1032" class="text-muted" font-size="8">&#9662;</text>

  <text x="418" y="1010" class="text-label">Duracion *</text>
  <rect x="418" y="1016" width="110" height="24" class="compound"/>
  <rect x="418" y="1016" width="54" height="24" class="num-part" rx="6"/>
  <text x="430" y="1032" class="text-value">3</text>
  <line x1="472" y1="1018" x2="472" y2="1038" stroke="#E5E2DC" stroke-width="1"/>
  <rect x="472" y="1016" width="56" height="24" class="sel-part" rx="0"/>
  <text x="482" y="1032" class="text-value" font-size="10">dias</text>
  <text x="518" y="1032" class="text-muted" font-size="8">&#9662;</text>

  <!-- Notas med -->
  <text x="42" y="1056" class="text-label">Notas</text>
  <rect x="42" y="1062" width="556" height="22" class="input-bg"/>
  <text x="54" y="1077" class="text-placeholder" font-size="10">Indicaciones para este medicamento...</text>

  <!-- Boton agregar med -->
  <rect x="28" y="1082" width="584" height="26" rx="6" fill="none" stroke="#E5E2DC" stroke-width="1" stroke-dasharray="4 2"/>
  <text x="320" y="1099" text-anchor="middle" class="text-muted" font-size="10">+ Agregar medicamento</text>

  <!-- ═══════════════════════════════════════════════════════════════ -->
  <!-- SECCION 6: ADJUNTOS — NUEVO                                   -->
  <!-- ═══════════════════════════════════════════════════════════════ -->
  <rect x="14" y="1130" width="612" height="72" class="card"/>
  <!-- Icono Paperclip (Lucide) -->
  <g transform="translate(28, 1138) scale(0.583)" class="section-icon">
    <path d="M13.234 20.252 21 12.3"/>
    <path d="m16 6-8.414 8.586a2 2 0 0 0 0 2.828 2 2 0 0 0 2.828 0l8.414-8.586a4 4 0 0 0 0-5.656 4 4 0 0 0-5.656 0l-8.415 8.585a6 6 0 1 0 8.486 8.486"/>
  </g>
  <text x="46" y="1152" class="text-section">ADJUNTOS</text>
  <rect x="92" y="1142" width="45" height="12" class="badge-new"/>
  <text x="96" y="1151" class="badge-new-text">NUEVO</text>
  <line x1="145" y1="1148" x2="612" y2="1148" class="separator"/>

  <rect x="28" y="1162" width="584" height="30" rx="6" fill="none" stroke="#E5E2DC" stroke-width="1" stroke-dasharray="4 2"/>
  <text x="320" y="1181" text-anchor="middle" class="text-muted" font-size="10">Arrastra archivos o haz click para adjuntar (fotos, radiografias, lab...)</text>
  <text x="28" y="1200" class="annotation">Campo attachments (jsonb) existia en DB pero no en el form. Fotos, radiografias, resultados de laboratorio.</text>

  <!-- ═══════════════════════════════════════════════════════════════ -->
  <!-- SECCION 7: SEGUIMIENTO — unificado                           -->
  <!-- ═══════════════════════════════════════════════════════════════ -->
  <rect x="14" y="1214" width="612" height="88" class="card"/>
  <!-- Icono CalendarCheck (Lucide) -->
  <g transform="translate(28, 1222) scale(0.583)" class="section-icon">
    <path d="M8 2v4"/><path d="M16 2v4"/>
    <rect width="18" height="18" x="3" y="4" rx="2"/>
    <path d="M3 10h18"/>
    <path d="m9 16 2 2 4-4"/>
  </g>
  <text x="46" y="1236" class="text-section">SEGUIMIENTO</text>
  <rect x="120" y="1226" width="50" height="12" class="badge-merged"/>
  <text x="124" y="1235" class="badge-merged-text">UNIFICADO</text>
  <line x1="178" y1="1232" x2="612" y2="1232" class="separator"/>

  <!-- Proximo control -->
  <text x="28" y="1256" class="text-label">Proximo control</text>
  <rect x="28" y="1262" width="160" height="28" class="input-bg"/>
  <text x="40" y="1280" class="text-value">04/04/2026</text>

  <!-- Notas unificadas -->
  <text x="200" y="1256" class="text-label">Notas</text>
  <rect x="200" y="1262" width="412" height="28" class="input-bg"/>
  <text x="212" y="1280" class="text-value">Verificar peso en proximo control</text>
  <text x="28" y="1300" class="annotation">Antes: "Notas de seguimiento" + "Notas generales" separados. Ahora: un solo campo.</text>

  <!-- ═══ Footer botones ═══ -->
  <rect x="14" y="1314" width="612" height="48" class="card"/>
  <rect x="490" y="1326" width="120" height="28" rx="6" fill="#F5A800"/>
  <text x="550" y="1344" text-anchor="middle" fill="#FFFFFF" font-size="12" font-weight="500">Registrar consulta</text>
  <rect x="388" y="1326" width="90" height="28" rx="6" fill="none" stroke="#E5E2DC" stroke-width="1"/>
  <text x="433" y="1344" text-anchor="middle" class="text-muted" font-size="12">Cancelar</text>

  <!-- ═══════════════════════════════════════════════════════════════ -->
  <!-- RESUMEN DE CAMBIOS                                            -->
  <!-- ═══════════════════════════════════════════════════════════════ -->
  <line x1="0" y1="1378" x2="640" y2="1378" class="separator"/>
  <text x="20" y="1398" class="text-title">Resumen de cambios</text>

  <rect x="20" y="1412" width="600" height="20" rx="0" fill="#F0EDE8" stroke="none"/>
  <text x="30" y="1426" class="text-label" font-weight="600">Campo</text>
  <text x="200" y="1426" class="text-label" font-weight="600">Antes</text>
  <text x="420" y="1426" class="text-label" font-weight="600">Despues</text>

  <!-- 1 -->
  <text x="30" y="1448" class="text-label">Veterinario</text>
  <text x="200" y="1448" class="text-muted">Texto libre</text>
  <text x="420" y="1448" class="text-value" font-size="10">Autocomplete contacts</text>
  <rect x="570" y="1440" width="45" height="12" class="badge-auto"/>
  <text x="574" y="1449" class="badge-auto-text">AUTO-FILL</text>

  <!-- 2 -->
  <text x="30" y="1466" class="text-label">Peso</text>
  <text x="200" y="1466" class="text-muted">Vacio cada vez</text>
  <text x="420" y="1466" class="text-value" font-size="10">Precargado ultimo registro</text>
  <rect x="570" y="1458" width="45" height="12" class="badge-auto"/>
  <text x="574" y="1467" class="badge-auto-text">AUTO-FILL</text>

  <!-- 3 -->
  <text x="30" y="1484" class="text-label">Motivo + Servicios</text>
  <text x="200" y="1484" class="text-muted">2 secciones + chips categ.</text>
  <text x="420" y="1484" class="text-value" font-size="10">1 seccion. Sin chips. Siempre visible.</text>
  <rect x="570" y="1476" width="45" height="12" class="badge-merged"/>
  <text x="574" y="1485" class="badge-merged-text">UNIFICADO</text>

  <!-- 4 -->
  <text x="30" y="1502" class="text-label">Examen clinico</text>
  <text x="200" y="1502" class="text-muted">Siempre abierto</text>
  <text x="420" y="1502" class="text-value" font-size="10">Colapsable (cerrado default)</text>
  <rect x="570" y="1494" width="55" height="12" class="badge-change"/>
  <text x="574" y="1503" class="badge-change-text">CAMBIADO</text>

  <!-- 5 -->
  <text x="30" y="1520" class="text-label">Diagnostico tags</text>
  <text x="200" y="1520" class="text-muted">No estaba en form</text>
  <text x="420" y="1520" class="text-value" font-size="10">ChipInput (jsonb existente)</text>
  <rect x="570" y="1512" width="45" height="12" class="badge-new"/>
  <text x="574" y="1521" class="badge-new-text">NUEVO</text>

  <!-- 6 -->
  <text x="30" y="1538" class="text-label">Tratamiento</text>
  <text x="200" y="1538" class="text-muted">Textarea ambiguo</text>
  <text x="420" y="1538" class="text-value" font-size="10">Indicaciones no farmacologicas</text>
  <rect x="570" y="1530" width="55" height="12" class="badge-change"/>
  <text x="574" y="1539" class="badge-change-text">CAMBIADO</text>

  <!-- 7 -->
  <text x="30" y="1556" class="text-label">Medicacion</text>
  <text x="200" y="1556" class="text-muted">4 inputs texto libre</text>
  <text x="420" y="1556" class="text-value" font-size="10">Estructurado + collapse/expand</text>
  <rect x="570" y="1548" width="55" height="12" class="badge-change"/>
  <text x="574" y="1557" class="badge-change-text">CAMBIADO</text>

  <!-- 8 -->
  <text x="30" y="1574" class="text-label">Adjuntos</text>
  <text x="200" y="1574" class="text-muted">No estaba en form</text>
  <text x="420" y="1574" class="text-value" font-size="10">Upload zone (jsonb existente)</text>
  <rect x="570" y="1566" width="45" height="12" class="badge-new"/>
  <text x="574" y="1575" class="badge-new-text">NUEVO</text>

  <!-- 9 -->
  <text x="30" y="1592" class="text-label">Notas seguimiento</text>
  <text x="200" y="1592" class="strikethrough">2 campos separados</text>
  <text x="420" y="1592" class="text-value" font-size="10">1 campo unificado</text>
  <rect x="570" y="1584" width="45" height="12" class="badge-merged"/>
  <text x="574" y="1593" class="badge-merged-text">UNIFICADO</text>

  <!-- ═══ Campos estructurados de medicacion ═══ -->
  <line x1="0" y1="1610" x2="640" y2="1610" class="separator"/>
  <text x="20" y="1630" class="text-section">CAMPOS ESTRUCTURADOS DE MEDICACION</text>

  <rect x="20" y="1640" width="145" height="36" rx="4" fill="#F0FAF4" stroke="#B8D4A0" stroke-width="0.5"/>
  <text x="30" y="1654" class="text-label" font-size="9" font-weight="600">Dosis</text>
  <text x="30" y="1668" class="annotation">numeric + select</text>

  <rect x="175" y="1640" width="145" height="36" rx="4" fill="#F0FAF4" stroke="#B8D4A0" stroke-width="0.5"/>
  <text x="185" y="1654" class="text-label" font-size="9" font-weight="600">Via</text>
  <text x="185" y="1668" class="annotation">Oral|IM|IV|SC|Top|Oft|Ot</text>

  <rect x="330" y="1640" width="145" height="36" rx="4" fill="#F0FAF4" stroke="#B8D4A0" stroke-width="0.5"/>
  <text x="340" y="1654" class="text-label" font-size="9" font-weight="600">Frecuencia</text>
  <text x="340" y="1668" class="annotation">c/6h|8h|12h|24h|48h|72h</text>

  <rect x="485" y="1640" width="135" height="36" rx="4" fill="#F0FAF4" stroke="#B8D4A0" stroke-width="0.5"/>
  <text x="495" y="1654" class="text-label" font-size="9" font-weight="600">Duracion</text>
  <text x="495" y="1668" class="annotation">int + dias|sem|meses</text>

  <text x="20" y="1698" class="text-label" font-size="9">Unidades de dosis:</text>
  <text x="120" y="1698" class="text-muted" font-size="9">mg/kg · mg · ml · UI/kg · gotas · comp.</text>

  <!-- ═══ Notas de disenio ═══ -->
  <line x1="0" y1="1714" x2="640" y2="1714" class="separator"/>
  <text x="20" y="1734" class="text-section">NOTAS DE DISENIO</text>

  <text x="20" y="1752" class="text-muted" font-size="9">1. Veterinario: Select de contacts si esta instalado. Fallback texto libre. Default del settings.</text>
  <text x="20" y="1766" class="text-muted" font-size="9">2. Peso: Precargado del ultimo peso en ficha del paciente (patients). Editable si cambio.</text>
  <text x="20" y="1780" class="text-muted" font-size="9">3. Servicios Prestados siempre visible. showPrices solo controla columnas precio/subtotal en ServiceLineForm.</text>
  <text x="20" y="1794" class="text-muted" font-size="9">4. Examen clinico colapsable (cerrado default). Vets lo abren solo si hacen examen completo. Campos opcionales.</text>
  <text x="20" y="1808" class="text-muted" font-size="9">5. diagnosis_tags y attachments: campos jsonb que existian en DB pero no en el form. Ahora expuestos.</text>

  <text x="20" y="1820" class="text-muted">consultations/design/medication-form-v3.svg — v3.1 Rediseño completo</text>
</svg>