<svg xmlns="http://www.w3.org/2000/svg" viewBox="0 0 620 520" font-family="Roboto, sans-serif">
  <defs>
    <style>
      .bg { fill: #F6F5F1; }
      .text-title { fill: #2C2925; font-size: 13px; font-weight: 600; font-family: 'Noto Serif JP', serif; }
      .text-section { fill: #9B9893; font-size: 10px; font-weight: 600; letter-spacing: 0.5px; }
      .text-label { fill: #6B6660; font-size: 10px; }
      .text-muted { fill: #9B9893; font-size: 10px; }
      .text-placeholder { fill: #C4C0BA; font-size: 11px; }
      .text-value { fill: #2C2925; font-size: 12px; }
      .input-bg { fill: #FFFFFF; stroke: #E5E2DC; stroke-width: 1; rx: 6; }
      .row-bg { fill: #FAFAF8; stroke: #E5E2DC; stroke-width: 1; rx: 8; }
      .separator { stroke: #E5E2DC; stroke-width: 1; }
      .annotation { fill: #9B9893; font-size: 8px; font-style: italic; }
      .chip-cat { fill: #F0EDE8; stroke: none; rx: 8; }
      .chip-cat-text { fill: #6B6660; font-size: 9px; }
      .total-bg { fill: #F6F5F1; stroke: none; rx: 6; }
      .total-text { fill: #2C2925; font-size: 14px; font-weight: 700; font-family: 'Noto Serif JP', serif; }
      .total-label { fill: #9B9893; font-size: 11px; font-weight: 500; }
    </style>
  </defs>

  <rect width="620" height="520" class="bg" rx="8"/>

  <text x="16" y="22" class="text-title">Servicios — v2 Filas limpias</text>
  <text x="604" y="22" text-anchor="end" class="text-muted">Variante 2</text>
  <line x1="0" y1="32" x2="620" y2="32" class="separator"/>
  <text x="16" y="50" class="annotation">Cada servicio como fila con nombre prominente, chip de categoria, cantidad inline, precio sutil. Sin headers de tabla.</text>

  <!-- Card contenedora -->
  <rect x="16" y="60" width="588" height="296" rx="10" fill="#FFFFFF" stroke="#E5E2DC" stroke-width="1"/>

  <text x="30" y="84" class="text-section">SERVICIOS PRESTADOS</text>
  <line x1="155" y1="80" x2="590" y2="80" class="separator"/>

  <!-- Motivo -->
  <text x="30" y="100" class="text-label">Motivo *</text>
  <rect x="30" y="106" width="560" height="26" class="input-bg"/>
  <text x="42" y="123" class="text-value">Control anual de rutina</text>

  <!-- Buscador -->
  <rect x="30" y="142" width="560" height="28" rx="6" fill="#FFFFFF" stroke="#E5E2DC" stroke-width="1"/>
  <circle cx="46" cy="156" r="6" fill="none" stroke="#C4C0BA" stroke-width="1"/>
  <line x1="50" y1="160" x2="53" y2="163" fill="none" stroke="#C4C0BA" stroke-width="1" stroke-linecap="round"/>
  <text x="60" y="160" class="text-placeholder">Agregar servicio...</text>

  <!-- Servicio 1 -->
  <rect x="30" y="180" width="560" height="40" class="row-bg"/>
  <text x="44" y="204" class="text-value" font-weight="500">Consulta general</text>
  <rect x="160" y="194" width="70" height="16" class="chip-cat"/>
  <text x="195" y="205" text-anchor="middle" class="chip-cat-text">Consultas</text>

  <text x="420" y="198" class="text-muted" font-size="9">Cant.</text>
  <rect x="448" y="194" width="36" height="20" class="input-bg"/>
  <text x="466" y="208" text-anchor="middle" class="text-value" font-size="11">1</text>
  <text x="496" y="206" class="text-muted" font-size="10">$5,000</text>
  <rect x="556" y="194" width="20" height="20" rx="4" fill="none" stroke="#E5E2DC" stroke-width="1"/>
  <text x="566" y="208" text-anchor="middle" fill="#C8423A" font-size="10">x</text>

  <!-- Servicio 2 -->
  <rect x="30" y="226" width="560" height="40" class="row-bg"/>
  <text x="44" y="250" class="text-value" font-weight="500">Vacuna antirrábica</text>
  <rect x="178" y="240" width="78" height="16" class="chip-cat"/>
  <text x="217" y="251" text-anchor="middle" class="chip-cat-text">Vacunación</text>

  <text x="420" y="244" class="text-muted" font-size="9">Cant.</text>
  <rect x="448" y="240" width="36" height="20" class="input-bg"/>
  <text x="466" y="254" text-anchor="middle" class="text-value" font-size="11">1</text>
  <text x="496" y="252" class="text-muted" font-size="10">$3,500</text>
  <rect x="556" y="240" width="20" height="20" rx="4" fill="none" stroke="#E5E2DC" stroke-width="1"/>
  <text x="566" y="254" text-anchor="middle" fill="#C8423A" font-size="10">x</text>

  <!-- Servicio 3 (cant > 1) -->
  <rect x="30" y="272" width="560" height="40" class="row-bg"/>
  <text x="44" y="296" class="text-value" font-weight="500">Análisis de sangre completo</text>
  <rect x="232" y="286" width="72" height="16" class="chip-cat"/>
  <text x="268" y="297" text-anchor="middle" class="chip-cat-text">Laboratorio</text>

  <text x="420" y="290" class="text-muted" font-size="9">Cant.</text>
  <rect x="448" y="286" width="36" height="20" class="input-bg"/>
  <text x="466" y="300" text-anchor="middle" class="text-value" font-size="11">2</text>
  <text x="496" y="296" class="text-muted" font-size="10">$7,000</text>
  <text x="496" y="306" class="text-muted" font-size="8">2 × $3,500</text>
  <rect x="556" y="286" width="20" height="20" rx="4" fill="none" stroke="#E5E2DC" stroke-width="1"/>
  <text x="566" y="300" text-anchor="middle" fill="#C8423A" font-size="10">x</text>

  <!-- Total -->
  <rect x="406" y="322" width="178" height="28" class="total-bg"/>
  <text x="420" y="341" class="total-label">Total:</text>
  <text x="572" y="342" text-anchor="end" class="total-text">$15,500</text>

  <!-- ═══ Pros / Contras ═══ -->
  <line x1="0" y1="372" x2="620" y2="372" class="separator"/>

  <text x="16" y="392" class="text-label" font-weight="600">Pros</text>
  <text x="16" y="406" class="annotation">Claro y legible — nombre grande, precio sutil</text>
  <text x="16" y="418" class="annotation">Chip de categoria da contexto sin ocupar espacio</text>
  <text x="16" y="430" class="annotation">Cantidad editable inline, sin click extra</text>
  <text x="16" y="442" class="annotation">Desglose visible cuando cantidad > 1</text>

  <text x="320" y="392" class="text-label" font-weight="600">Contras</text>
  <text x="320" y="406" class="annotation">Mas vertical que v1 (1 fila por servicio)</text>
  <text x="320" y="418" class="annotation">Con 10+ servicios puede crecer mucho</text>

  <!-- showPrices -->
  <line x1="0" y1="458" x2="620" y2="458" class="separator"/>
  <text x="16" y="478" class="text-muted" font-size="9">showPrices=false → sin precios, sin desglose, sin total. Queda: nombre + chip categoria + cantidad + eliminar.</text>
  <text x="16" y="492" class="text-muted" font-size="9">Precio unitario no es editable — viene del catalogo. Solo la cantidad se puede cambiar.</text>

  <text x="16" y="516" class="text-muted">consultations/design/services-v2-rows.svg</text>
</svg>